# xmcd
#
# Track frame offsets:
#	150
#	12742
#	27959
#	49495
#	68565
#	86546
#	107705
#	129276
#	142628
#	165644
#	182918
#	194158
#	210694
#	227547
#	242233
#
# Disc length: 3502 seconds
#
# Revision: 0
# Processed by: cddbd v1.5PL3 Copyright (c) Steve Scherf et al.
# Submitted via: dBpowerAMP V4.0
#
DISCID=d00dac0f
DTITLE=Pete Schmidt and Shane Scott - Blues Approved
DYEAR=2003
DGENRE=Blues
TTITLE0=Back Flip
TTITLE1=How Long
TTITLE2=Back On Top
TTITLE3=I'll Be Back
TTITLE4=Two Women
TTITLE5=No Need To Be Alone
TTITLE6=Every Morning
TTITLE7=P.T. Shuffle
TTITLE8=Blue Moon Blues
TTITLE9=Vampire Woman
TTITLE10=Get Lucky
TTITLE11=Jessie
TTITLE12=If It Ain't One Thing
TTITLE13=Gimme All Your Money
TTITLE14=Harpin'
EXTD=
EXTT0=
EXTT1=
EXTT2=
EXTT3=
EXTT4=
EXTT5=
EXTT6=
EXTT7=
EXTT8=
EXTT9=
EXTT10=
EXTT11=
EXTT12=
EXTT13=
EXTT14=
PLAYORDER=
